<svg xmlns="http://www.w3.org/2000/svg" width="342" height="94" viewBox="0 0 342 94" fill="none">
<title>Elaia</title>
<path d="M31.8194 73.9232C31.8194 72.9796 32.3606 72.1175 33.2102 71.704L60.1007 58.668C61.7359 57.8758 63.6388 59.0699 63.6388 60.8873V76.6434C63.6388 77.5871 63.0976 78.4491 62.248 78.8627L33.8387 92.6326C32.5642 93.25 31.0745 93.25 29.7943 92.6326L1.39079 78.8627C0.541186 78.455 0 77.5929 0 76.6434V66.3684C0 64.5511 1.90288 63.357 3.53807 64.1492L28.2813 76.1425C29.9165 76.9347 31.8194 75.7406 31.8194 73.9232Z" fill="#143334"/>
<path d="M31.8205 50.8916V50.0412C31.8205 49.0975 32.3616 48.2355 33.2112 47.8219L55.4871 37.0285C56.7616 36.4111 58.292 36.9935 58.839 38.3041L62.7553 47.7404C63.2558 48.9461 62.7262 50.3382 61.5508 50.9032L32.897 64.7896C32.2162 65.1158 31.4248 65.1158 30.7497 64.7896L2.09599 50.9032C0.920508 50.3324 0.39096 48.9461 0.891412 47.7404L2.91649 42.8591C3.45768 41.5486 4.99395 40.9661 6.26835 41.5835L29.0505 52.6332C30.3307 53.2565 31.8263 52.3187 31.8263 50.8916H31.8205Z" fill="#143334"/>
<path d="M31.8198 27.6567V25.3326C31.8198 24.389 32.361 23.5269 33.2106 23.1134L47.7702 16.0595C49.0446 15.4421 50.5751 16.0245 51.1221 17.3351L55.0384 26.7714C55.5389 27.9771 55.0093 29.3692 53.8338 29.9401L32.8963 40.0869C32.2155 40.4131 31.4241 40.4131 30.7491 40.0869L9.637 29.8527C8.46152 29.2819 7.93198 27.8956 8.43243 26.6898L9.94542 23.0435C10.4866 21.7329 12.0229 21.1504 13.2973 21.7678L29.044 29.4042C30.3243 30.0274 31.814 29.0896 31.814 27.6626L31.8198 27.6567Z" fill="#143334"/>
<path d="M118.217 23.9575C100.178 23.9575 87.4453 37.0576 87.4453 55.2369C87.4453 73.4162 99.7064 86.3939 118.339 86.3939C123.443 86.3939 128.139 85.4852 132.224 83.7669C137.909 81.3787 142.373 77.3945 145.009 71.9891L133.894 66.339C133.196 65.9837 132.352 66.339 132.102 67.0904C129.437 75.0937 119.608 75.2976 118.339 75.2976C109.378 75.2976 103.599 69.63 102.424 59.3667H147.703C149.117 35.7645 136.501 23.9575 118.223 23.9575H118.217ZM102.651 49.3363C104.181 40.1331 109.843 35.0538 118.217 35.0538C125.526 35.0538 131.66 39.1836 132.835 49.3363H102.651Z" fill="#143334"/>
<path d="M159.365 84.9785V0H174.105V84.9785H159.365Z" fill="#143334"/>
<path d="M205.465 86.3937C193.082 86.3937 185.656 79.433 185.656 69.1639C185.656 58.8947 192.494 53.5824 204.283 51.4622L218.314 49.1031C223.382 48.1595 225.39 46.3888 225.39 43.2026C225.39 38.4845 221.497 34.943 214.543 34.943C207.589 34.943 203.061 38.0185 201.694 43.1793C201.374 44.3792 200.198 45.1423 198.959 45.0724L187.07 44.385C189.072 30.9297 199.925 23.969 214.543 23.969C229.161 23.969 240.013 31.052 240.013 45.5675V72.3617C240.013 74.3654 241.311 75.4314 243.197 75.4314H245.437V85.1064C243.08 85.8171 241.072 86.2889 238.361 86.2889C231.523 86.2889 226.804 83.5745 225.861 77.6739L225.623 75.0761C222.672 82.0367 215.485 86.4054 205.459 86.4054L205.465 86.3937ZM209.713 75.8915C219.029 75.8915 225.512 69.1639 225.512 59.9606L225.396 54.5319C223.865 56.7744 221.27 57.9569 216.905 58.9005L208.299 60.6713C203.585 61.6149 200.518 63.9739 200.518 68.3426C200.518 72.7112 203.702 75.8974 209.713 75.8974V75.8915Z" fill="#143334"/>
<path d="M255.93 84.9786V25.373H270.67V84.9727H255.93V84.9786Z" fill="#143334"/>
<path d="M302.027 86.3937C289.644 86.3937 282.219 79.433 282.219 69.1639C282.219 58.8947 289.056 53.5824 300.846 51.4622L314.876 49.1031C319.945 48.1595 321.952 46.3888 321.952 43.2026C321.952 38.4845 318.059 34.943 311.105 34.943C304.151 34.943 299.624 38.0185 298.256 43.1793C297.936 44.3792 296.761 45.1423 295.521 45.0724L283.633 44.385C285.635 30.9297 296.487 23.969 311.105 23.969C325.723 23.969 336.576 31.052 336.576 45.5675V72.3617C336.576 74.3654 337.874 75.4314 339.759 75.4314C340.347 75.4314 341.173 75.3149 341.999 75.1926V85.1064C339.643 85.8171 337.635 86.2889 334.923 86.2889C328.086 86.2889 323.366 83.5745 322.424 77.6739L322.185 75.0761C319.235 82.0367 312.048 86.4054 302.021 86.4054L302.027 86.3937ZM306.275 75.8915C315.592 75.8915 322.074 69.1639 322.074 59.9606L321.958 54.5319C320.428 56.7744 317.832 57.9569 313.468 58.9005L304.861 60.6713C300.148 61.6149 297.081 63.9739 297.081 68.3426C297.081 72.7112 300.264 75.8974 306.275 75.8974V75.8915Z" fill="#143334"/>
<path d="M270.824 0.000244141H255.758V15.0807H270.824V0.000244141Z" fill="#143334"/>
</svg>
